<?xml version="1.0" encoding="iso-8859-1"?>
<!-- Uploaded to: SVG Repo, www.svgrepo.com, Generator: SVG Repo Mixer Tools -->
<!DOCTYPE svg PUBLIC "-//W3C//DTD SVG 1.1//EN" "http://www.w3.org/Graphics/SVG/1.1/DTD/svg11.dtd">
<svg fill="#000000" version="1.1" id="Capa_1" xmlns="http://www.w3.org/2000/svg" xmlns:xlink="http://www.w3.org/1999/xlink" 
	 width="800px" height="800px" viewBox="0 0 162.14 162.14"
	 xml:space="preserve">
<g>
	<path d="M161.052,35.995c-0.965-0.723-2.288-0.717-3.259,0.013l-44.967,34.328L83.53,4.146c-0.433-0.976-1.4-1.608-2.468-1.608
		c-1.071,0-2.036,0.633-2.468,1.603L48.965,71.09L4.36,36.024c-0.949-0.756-2.299-0.772-3.267-0.05
		c-0.983,0.726-1.35,2.01-0.907,3.148l29.921,77.332c0.401,1.039,1.411,1.725,2.521,1.725h96.873c1.113,0,2.12-0.686,2.521-1.725
		l29.933-77.332C162.396,38.004,162.027,36.726,161.052,35.995z M80.247,27.885L54.196,85.114c-0.274,0.606-0.804,1.05-1.458,1.208
		c-0.166,0.031-0.335,0.053-0.512,0.053c-0.482,0-0.946-0.147-1.329-0.454L18.216,60.387c-0.938-0.733-1.107-2.093-0.372-3.035
		c0.747-0.938,2.097-1.107,3.035-0.372l30.52,23.847l24.907-54.73c0.495-1.084,1.787-1.563,2.86-1.073
		C80.258,25.52,80.732,26.806,80.247,27.885z M130.155,148.802h-1.835v-12.15h1.835c2.984,0,5.399-2.42,5.399-5.399
		s-2.415-5.4-5.399-5.4H31.982c-2.988,0-5.4,2.421-5.4,5.4s2.413,5.399,5.4,5.399h1.835v12.15h-1.835c-2.988,0-5.4,2.42-5.4,5.4
		c0,2.979,2.413,5.399,5.4,5.399h98.173c2.984,0,5.399-2.421,5.399-5.399C135.555,151.222,133.14,148.802,130.155,148.802z
		 M122.92,148.802h-24.3v-12.15h24.3V148.802z M93.22,148.802H68.917v-12.15H93.22V148.802z M39.217,136.651h24.3v12.15h-24.3
		V136.651z"/>
</g>
</svg>